<svg id="Camada_1" data-name="Camada 1" xmlns="http://www.w3.org/2000/svg" xmlns:xlink="http://www.w3.org/1999/xlink" viewBox="0 0 964.42 140.42"><defs><style>.cls-1,.cls-21,.cls-22{fill:none;}.cls-2{clip-path:url(#clip-path);}.cls-3{fill:#cfc9c2;}.cls-4{fill:url(#Gradiente_sem_nome_97);}.cls-5{fill:url(#Gradiente_sem_nome_99);}.cls-6{fill:url(#Gradiente_sem_nome_101);}.cls-7{fill:url(#Gradiente_sem_nome_33);}.cls-8{clip-path:url(#clip-path-2);}.cls-9{fill:url(#Gradiente_sem_nome_86);}.cls-10{fill:url(#Gradiente_sem_nome_139);}.cls-11{fill:#fbf9f9;}.cls-12{fill:#fcfbfb;}.cls-13{opacity:0.21;}.cls-14{fill:#d8d1ca;}.cls-15{fill:#b6b0ab;}.cls-16{fill:#aca7a2;}.cls-17{fill:#cac4bd;}.cls-18{fill:#c4beb7;}.cls-19{fill:#c0bbb4;}.cls-20{fill:#bab5af;}.cls-21{stroke:#aca7a2;}.cls-21,.cls-22{stroke-miterlimit:10;}.cls-22{stroke:#b6b0ab;}.cls-23{font-size:121.21px;fill:#1882ff;font-family:FranklinGothic-Heavy, Franklin Gothic Heavy;font-weight:800;letter-spacing:-0.02em;}.cls-24{letter-spacing:-0.01em;}.cls-25{letter-spacing:0.01em;}.cls-26{letter-spacing:0em;}.cls-27{letter-spacing:-0.01em;}</style><clipPath id="clip-path" transform="translate(-20.18 -441.78)"><path class="cls-1" d="M47.41,441.81h87.25a0,0,0,0,1,0,0V566.53a0,0,0,0,1,0,0H47.77A15.37,15.37,0,0,1,32.4,551.16V456.82A15,15,0,0,1,47.41,441.81Z"/></clipPath><linearGradient id="Gradiente_sem_nome_97" x1="1.84" y1="62.42" x2="188.96" y2="62.42" gradientUnits="userSpaceOnUse"><stop offset="0.53" stop-color="#52793d"/><stop offset="1" stop-color="#52793d" stop-opacity="0"/></linearGradient><linearGradient id="Gradiente_sem_nome_99" x1="-24.54" y1="62.26" x2="151.45" y2="62.26" gradientUnits="userSpaceOnUse"><stop offset="0.53" stop-color="#e0be2d"/><stop offset="1" stop-color="#e0be2d" stop-opacity="0"/></linearGradient><linearGradient id="Gradiente_sem_nome_101" x1="58.36" y1="62.34" x2="132.87" y2="62.34" gradientUnits="userSpaceOnUse"><stop offset="0.53" stop-color="#365f9b"/><stop offset="1" stop-color="#365f9b" stop-opacity="0"/></linearGradient><linearGradient id="Gradiente_sem_nome_33" x1="73.49" y1="501.63" x2="146.41" y2="501.63" gradientUnits="userSpaceOnUse"><stop offset="0.53" stop-color="#fdfbf9"/><stop offset="1" stop-color="#fff" stop-opacity="0"/></linearGradient><clipPath id="clip-path-2" transform="translate(-20.18 -441.78)"><path class="cls-1" d="M135,441.8H221.5a15.42,15.42,0,0,1,15.42,15.42v93.55a15.75,15.75,0,0,1-15.75,15.75H135a.32.32,0,0,1-.32-.32V442.13A.32.32,0,0,1,135,441.8Z"/></clipPath><linearGradient id="Gradiente_sem_nome_86" x1="275.56" y1="504.16" x2="58.93" y2="504.16" gradientUnits="userSpaceOnUse"><stop offset="0.53" stop-color="#be0712"/><stop offset="1" stop-color="#be0112" stop-opacity="0"/></linearGradient><linearGradient id="Gradiente_sem_nome_139" x1="88.42" y1="504.17" x2="150.68" y2="504.17" gradientUnits="userSpaceOnUse"><stop offset="0.28" stop-color="#c46b6e" stop-opacity="0"/><stop offset="1" stop-color="#fcfbfb"/></linearGradient></defs><title>Logo-nav-esquerda</title><g class="cls-2"><path class="cls-3" d="M170.56,560.91" transform="translate(-20.18 -441.78)"/><polygon class="cls-4" points="0 0.07 0 124.75 187.12 124.79 187.12 0.05 0 0.07"/><polygon class="cls-5" points="5.65 62.24 93.59 118.61 181.63 62.2 93.59 5.9 5.65 62.24"/><circle class="cls-6" cx="93.66" cy="62.34" r="37.25"/><path class="cls-7" d="M79.78,489s39.42-7.31,70.94,20.37c0,0-1,5.16-1.53,5.78,0,0-27.11-27.47-71.39-20.52A43.05,43.05,0,0,1,79.78,489Z" transform="translate(-20.18 -441.78)"/></g><g class="cls-8"><path class="cls-9" d="M189.43,441.8q46.41,0,92.83,0c.64,0,.75.14.75.76q0,61.62,0,123.23c0,.61-.09.77-.74.77q-92.79,0-185.58,0c-.67,0-.8-.15-.79-.8q0-61.62,0-123.23c0-.56.09-.73.7-.73Q143,441.81,189.43,441.8Zm-1.62,80c0-.06.05-.15,0-.17s-.1,0-.12.09l-.16.15-.59.5c-6.34,5.68-13.74,7.83-22.07,6.15a24.93,24.93,0,1,1,15.15-47.22,28,28,0,0,1,7.51,5.07l.16.15s.11.13.12.12,0-.14,0-.21l-.12-.16c-.22-.32-.43-.65-.66-1a31.19,31.19,0,1,0-14.29,48.13A30.39,30.39,0,0,0,187.7,522Zm27-8.61.09-.13c-.15-.21-.29-.42-.44-.62-1.88-2.59-3.74-5.18-5.64-7.75a.78.78,0,0,1,0-1.13c1.92-2.59,3.8-5.2,5.68-7.81.15-.19.37-.35.37-.64-.29-.08-.51.09-.75.16-3,1-6.07,1.95-9.09,3a.84.84,0,0,1-1.15-.36c-1.86-2.62-3.77-5.21-5.66-7.81-.15-.2-.22-.47-.57-.56v.78c0,3.17,0,6.34,0,9.51,0,.61-.13.9-.76,1.08-2.11.63-4.2,1.34-6.29,2-1.16.37-2.32.76-3.64,1.2l.45.17c3.17,1,6.35,2.09,9.53,3.1a.84.84,0,0,1,.71,1c0,3.27,0,6.54,0,9.81,0,.18-.11.41.15.59l.45-.63c1.9-2.6,3.8-5.19,5.67-7.81a.75.75,0,0,1,1-.34c.92.35,1.87.62,2.81.92Z" transform="translate(-20.18 -441.78)"/><path class="cls-10" d="M187.7,522a30.39,30.39,0,0,1-14.95,11.46A31.17,31.17,0,1,1,187,485.35c.23.31.44.64.66,1l-.14.1a28,28,0,0,0-7.51-5.07,24.93,24.93,0,1,0-15.15,47.22c8.33,1.68,15.73-.47,22.07-6.15l.59-.5Z" transform="translate(-20.18 -441.78)"/><path class="cls-11" d="M214.79,513.23l-7.07-2.3c-.94-.3-1.89-.57-2.81-.92a.75.75,0,0,0-1,.34c-1.87,2.62-3.77,5.21-5.67,7.81l-.45.63c-.26-.18-.15-.41-.15-.59,0-3.27,0-6.54,0-9.81a.84.84,0,0,0-.71-1c-3.18-1-6.36-2.06-9.53-3.1l-.45-.17c1.32-.44,2.48-.83,3.64-1.2,2.09-.69,4.18-1.4,6.29-2,.63-.18.77-.47.76-1.08,0-3.17,0-6.34,0-9.51v-.78c.35.09.42.36.57.56,1.89,2.6,3.8,5.19,5.66,7.81a.84.84,0,0,0,1.15.36c3-1,6.06-2,9.09-3,.24-.07.46-.24.75-.16,0,.29-.22.45-.37.64-1.88,2.61-3.76,5.22-5.68,7.81a.78.78,0,0,0,0,1.13c1.9,2.57,3.76,5.16,5.64,7.75.15.2.29.41.44.62Z" transform="translate(-20.18 -441.78)"/><path class="cls-12" d="M187.7,486.31l.12.16-.1.09-.16-.15Z" transform="translate(-20.18 -441.78)"/><path class="cls-12" d="M187.82,486.47c.05.07.14.13,0,.21s-.08-.08-.12-.12Z" transform="translate(-20.18 -441.78)"/><path class="cls-12" d="M187.72,521.76c0-.07,0-.14.12-.09s0,.11,0,.17Z" transform="translate(-20.18 -441.78)"/><path class="cls-12" d="M187.56,521.91l.16-.15.09.08-.11.18Z" transform="translate(-20.18 -441.78)"/></g><g class="cls-13"><polygon class="cls-14" points="114.89 0.03 119.17 4.59 124.22 107.98 106.64 107.98 110.65 4.72 114.89 0.03"/><polygon class="cls-3" points="114.48 0.03 115.43 107.98 124.22 107.98 119.17 4.59 114.48 0.03"/><rect class="cls-15" x="93.56" y="111.84" width="44.12" height="12.91"/><rect class="cls-16" x="115.43" y="111.84" width="22.25" height="12.91"/><rect class="cls-17" x="105.57" y="107.98" width="20.1" height="1.93"/><rect class="cls-18" x="115.43" y="107.98" width="10.24" height="1.93"/><rect class="cls-19" x="104.66" y="109.91" width="21.92" height="1.93"/><rect class="cls-20" x="115.43" y="109.91" width="11.15" height="1.93"/><polygon class="cls-3" points="122.5 72.79 107.95 72.79 106.87 71.51 123.69 71.51 122.5 72.79"/><polygon class="cls-3" points="122.5 72.79 107.95 72.79 106.87 74.08 123.69 74.08 122.5 72.79"/><polygon class="cls-17" points="122.5 72.79 115.33 72.79 115.33 74.08 123.69 74.08 122.5 72.79"/><polygon class="cls-17" points="122.5 72.79 115.33 72.79 115.33 71.51 123.69 71.51 122.5 72.79"/><line class="cls-21" x1="136.31" y1="111.84" x2="136.31" y2="106.5"/><line class="cls-21" x1="129.55" y1="111.84" x2="129.55" y2="107.68"/><line class="cls-22" x1="94.75" y1="111.84" x2="94.75" y2="106.5"/><line class="cls-22" x1="101.51" y1="111.84" x2="101.51" y2="107.68"/></g><polygon class="cls-14" points="114.5 0.03 118.42 5.53 123.32 108.11 106.26 108.11 109.98 5.53 114.5 0.03"/><polygon class="cls-3" points="114.5 0.03 114.79 108.11 123.32 108.11 118.42 5.53 114.5 0.03"/><rect class="cls-15" x="93.56" y="111.94" width="42.83" height="12.81"/><rect class="cls-16" x="114.79" y="111.94" width="21.6" height="12.81"/><rect class="cls-17" x="105.22" y="108.11" width="19.52" height="1.91"/><rect class="cls-18" x="114.79" y="108.11" width="9.94" height="1.91"/><rect class="cls-19" x="104.33" y="110.02" width="21.28" height="1.91"/><rect class="cls-20" x="114.79" y="110.02" width="10.82" height="1.91"/><polygon class="cls-3" points="121.65 73.2 107.53 73.2 106.48 71.92 122.81 71.92 121.65 73.2"/><polygon class="cls-3" points="121.65 73.2 107.53 73.2 106.48 74.47 122.81 74.47 121.65 73.2"/><polygon class="cls-17" points="121.65 73.2 114.7 73.2 114.7 74.47 122.81 74.47 121.65 73.2"/><polygon class="cls-17" points="121.65 73.2 114.7 73.2 114.7 71.92 122.81 71.92 121.65 73.2"/><line class="cls-21" x1="135.07" y1="111.94" x2="135.07" y2="106.64"/><line class="cls-21" x1="128.5" y1="111.94" x2="128.5" y2="107.82"/><line class="cls-22" x1="94.71" y1="111.94" x2="94.71" y2="106.64"/><line class="cls-22" x1="101.28" y1="111.94" x2="101.28" y2="107.82"/><text class="cls-23" transform="translate(242.7 103.25)">P<tspan class="cls-24" x="75.13" y="0">o</tspan><tspan class="cls-25" x="145.95" y="0">r</tspan><tspan class="cls-26" x="193.38" y="0">t</tspan><tspan class="cls-27" x="238.16" y="0">al Bratur</tspan></text></svg>